<?xml version="1.0" encoding="utf-8"?>
<!-- Generator: Adobe Illustrator 23.0.1, SVG Export Plug-In . SVG Version: 6.00 Build 0)  -->
<svg version="1.1" id="Layer_1" xmlns="http://www.w3.org/2000/svg" xmlns:xlink="http://www.w3.org/1999/xlink" x="0px" y="0px"
	 viewBox="0 0 2000 666" style="enable-background:new 0 0 2000 666;" xml:space="preserve">
<style type="text/css">
	.st0{fill:#3C3B3C;}
</style>
<g>
	<path class="st0" d="M319.9,490h-56.4L137.1,308.1V490H62V154.8h56.4l126.4,181.9V154.8h75.1V490z"/>
	<path class="st0" d="M442.1,490.9H367V155.5h237.6v73.7H442.1v64.6h160.1v74H442.1L442.1,490.9L442.1,490.9z"/>
	<path class="st0" d="M810.6,490h-75.1V228.5h-84.3v-73.7h243.7v73.7h-84.3V490z"/>
	<path class="st0" d="M1017.1,490.9h-75.1V155.5h237.6v73.7h-162.4v64.6h160.1v74h-160.1L1017.1,490.9L1017.1,490.9z"/>
	<path class="st0" d="M1301,490.9h-74.9V155.5h74.9V490.9z"/>
	<path class="st0" d="M1507.2,490.9c-45.1,0-83.2-16.1-113.6-48.2c-30.5-32.3-45.6-72.1-45.6-119.6s15.1-87.3,45.6-119.4
		c30.5-32.1,68.5-48.2,113.6-48.2h131.3v73.7h-131.3c-39.4,0-66.7,19-81.5,57.1H1603l-38.9,73.7h-138.4
		c14.9,37.9,42.1,56.9,81.5,56.9h131.3v74L1507.2,490.9L1507.2,490.9z"/>
	<path class="st0" d="M1685.5,490.9V155.5h131.3c45.1,0,82.9,16.1,113.4,48.2c30.5,32.1,45.8,71.9,45.8,119.4s-15.3,87.3-45.8,119.6
		c-30.5,32.1-68.3,48.2-113.4,48.2L1685.5,490.9L1685.5,490.9z M1816.8,417c51.6,0,80.4-31.4,87-93.9c0-57.3-29.1-88.7-87-93.9
		h-56.4V417L1816.8,417L1816.8,417z"/>
</g>
</svg>
