<?xml version="1.0" encoding="utf-8"?>
<!-- Generator: Adobe Illustrator 23.0.1, SVG Export Plug-In . SVG Version: 6.00 Build 0)  -->
<svg version="1.1" id="Layer_1" xmlns="http://www.w3.org/2000/svg" xmlns:xlink="http://www.w3.org/1999/xlink" x="0px" y="0px"
	 viewBox="0 0 1000 1000" style="enable-background:new 0 0 1000 1000;" xml:space="preserve">
<style type="text/css">
	.st0{fill:#F26464;}
	.st1{clip-path:url(#SVGID_2_);fill:#F26464;}
	.st2{fill:#F9D298;}
	.st3{clip-path:url(#SVGID_4_);fill:#F9D298;}
	.st4{clip-path:url(#SVGID_7_);fill:#F9D298;}
	.st5{opacity:0.75;}
	.st6{clip-path:url(#SVGID_13_);}
	.st7{clip-path:url(#SVGID_17_);fill:#F26464;}
</style>
<g>
	<path class="st0" d="M212.8,324.1c-94.3,0.1-172.4,78.2-174.5,174.6c-0.6,59.7,2.4,121.3,1.8,181l174.9-180.5
		c-1.1,60.2-2.1,120.3-3.2,180.5c58.9-0.3,117.8-0.5,176.6-0.8c-0.3-60.2-0.5-120.3-0.8-180.5c-2.2-94.5-77.5-171.4-169.4-174.2
		C216.4,324.1,214.6,324.1,212.8,324.1"/>
</g>
<g>
	<g>
		<g>
			<path id="SVGID_9_" class="st0" d="M463,157.8v259.6c41.7-43.8,83.4-87.5,125.1-131.3c43-42.8,86-85.6,129-128.3L463,157.8
				L463,157.8z"/>
		</g>
		<g>
			<defs>
				<path id="SVGID_1_" d="M463,157.8v259.6c41.7-43.8,83.4-87.5,125.1-131.3c43-42.8,86-85.6,129-128.3L463,157.8L463,157.8z"/>
			</defs>
			<clipPath id="SVGID_2_">
				<use xlink:href="#SVGID_1_"  style="overflow:visible;"/>
			</clipPath>
			<rect x="463" y="157.8" class="st1" width="254.1" height="259.6"/>
		</g>
	</g>
</g>
<g>
	<g>
		<g>
			<rect id="SVGID_15_" x="463" y="418.9" class="st2" width="149.1" height="259.6"/>
		</g>
		<g>
			<defs>
				<rect id="SVGID_3_" x="463" y="418.9" width="149.1" height="259.6"/>
			</defs>
			<clipPath id="SVGID_4_">
				<use xlink:href="#SVGID_3_"  style="overflow:visible;"/>
			</clipPath>
			<rect x="463" y="418.9" class="st3" width="149.1" height="259.6"/>
		</g>
	</g>
</g>
<g>
	<g>
		<g>
			<rect id="SVGID_16_" x="710.3" y="420.4" class="st2" width="254.4" height="257.9"/>
		</g>
		<g>
			<defs>
				<rect id="SVGID_5_" x="710.3" y="420.4" width="254.4" height="257.9"/>
			</defs>
			<clipPath id="SVGID_7_">
				<use xlink:href="#SVGID_5_"  style="overflow:visible;"/>
			</clipPath>
			<rect x="710.3" y="420.4" class="st4" width="254.4" height="257.9"/>
		</g>
	</g>
</g>
<g class="st5">
	<g>
		<g>
			<defs>
				<rect id="SVGID_10_" x="786.8" y="501.9" width="101.5" height="275.6"/>
			</defs>
			<clipPath id="SVGID_11_">
				<use xlink:href="#SVGID_10_"  style="overflow:visible;"/>
			</clipPath>
		</g>
	</g>
	<g>
		<g>
			<rect id="SVGID_6_" x="786.8" y="501.9" class="st0" width="101.5" height="275.6"/>
		</g>
		<g>
			<defs>
				<rect id="SVGID_12_" x="786.8" y="501.9" width="101.5" height="275.6"/>
			</defs>
			<clipPath id="SVGID_13_">
				<use xlink:href="#SVGID_12_"  style="overflow:visible;"/>
			</clipPath>
			<g class="st6">
				<g>
					<rect id="SVGID_8_" x="786.8" y="501.9" class="st0" width="101.5" height="275.6"/>
				</g>
				<g>
					<defs>
						<rect id="SVGID_14_" x="786.8" y="501.9" width="101.5" height="275.6"/>
					</defs>
					<clipPath id="SVGID_17_">
						<use xlink:href="#SVGID_14_"  style="overflow:visible;"/>
					</clipPath>
					<rect x="786.8" y="501.9" class="st7" width="101.5" height="275.6"/>
				</g>
			</g>
		</g>
	</g>
	<g>
		<g>
			<defs>
				<rect id="SVGID_18_" x="786.8" y="501.9" width="101.5" height="275.6"/>
			</defs>
			<clipPath id="SVGID_19_">
				<use xlink:href="#SVGID_18_"  style="overflow:visible;"/>
			</clipPath>
		</g>
	</g>
</g>
</svg>
