<?xml version="1.0" encoding="utf-8"?>
<!-- Generator: Adobe Illustrator 23.0.1, SVG Export Plug-In . SVG Version: 6.00 Build 0)  -->
<svg version="1.1" id="Layer_1" xmlns="http://www.w3.org/2000/svg" xmlns:xlink="http://www.w3.org/1999/xlink" x="0px" y="0px"
	 viewBox="0 0 1000 1000" style="enable-background:new 0 0 1000 1000;" xml:space="preserve">
<style type="text/css">
	.st0{fill:#3C3B3C;}
	.st1{fill:#F26464;}
	.st2{clip-path:url(#SVGID_3_);fill:#F26464;}
	.st3{clip-path:url(#SVGID_20_);fill:#F9D298;}
	.st4{clip-path:url(#SVGID_23_);fill:#F9D298;}
	.st5{opacity:0.75;}
	.st6{clip-path:url(#SVGID_25_);}
	.st7{clip-path:url(#SVGID_27_);}
	.st8{clip-path:url(#SVGID_28_);fill:#F26464;}
	.st9{clip-path:url(#SVGID_29_);}
</style>
<g>
	<path class="st0" d="M152.13,870.81h-27.36l-61.39-88.3v88.3H26.9V708.07h27.36l61.39,88.3v-88.3h36.48V870.81z"/>
	<path class="st0" d="M211.46,871.27h-36.48V708.41h115.34v35.8h-78.86v31.37h77.74v35.91h-77.74V871.27z"/>
	<path class="st0" d="M390.33,870.81h-36.48V743.87h-40.93v-35.8h118.34v35.8h-40.93V870.81z"/>
	<path class="st0" d="M490.58,871.27H454.1V708.41h115.34v35.8h-78.86v31.37h77.74v35.91h-77.74V871.27z"/>
	<path class="st0" d="M628.42,871.27h-36.37V708.41h36.37V871.27z"/>
	<path class="st0" d="M728.56,871.27c-21.91,0-40.37-7.84-55.17-23.41c-14.79-15.68-22.13-35-22.13-58.07
		c0-23.07,7.34-42.39,22.13-57.96c14.79-15.57,33.26-23.41,55.17-23.41h63.73v35.8h-63.73c-19.13,0-32.37,9.21-39.59,27.73h86.08
		l-18.91,35.8h-67.18c7.23,18.41,20.46,27.62,39.59,27.62h63.73v35.91H728.56z"/>
	<path class="st0" d="M815.13,871.27V708.41h63.73c21.91,0,40.26,7.84,55.05,23.41c14.79,15.57,22.24,34.89,22.24,57.96
		c0,23.07-7.45,42.39-22.24,58.07c-14.79,15.57-33.14,23.41-55.05,23.41H815.13z M878.86,835.36c25.03,0,39.04-15.23,42.26-45.57
		c0-27.84-14.13-43.07-42.26-45.57H851.5v91.15H878.86z"/>
</g>
<g>
	<path class="st1" d="M202.8,204.11c-94.32,0.08-172.44,78.19-174.53,174.55c-0.62,59.71,2.37,121.32,1.75,181.03l174.89-180.47
		c-1.06,60.16-2.12,120.32-3.18,180.47c58.88-0.27,117.77-0.53,176.65-0.8c-0.26-60.16-0.52-120.32-0.78-180.49
		c-2.19-94.5-77.48-171.35-169.36-174.21C206.44,204.14,204.63,204.11,202.8,204.11"/>
</g>
<g>
	<g>
		<defs>
			<path id="SVGID_11_" d="M452.98,37.8v259.6c41.71-43.76,83.41-87.51,125.12-131.27c42.99-42.77,85.98-85.56,128.96-128.33H452.98
				z"/>
		</defs>
		<clipPath id="SVGID_1_">
			<use xlink:href="#SVGID_11_"  style="overflow:visible;"/>
		</clipPath>
	</g>
	<g>
		<defs>
			<path id="SVGID_9_" d="M452.98,37.8v259.6c41.71-43.76,83.41-87.51,125.12-131.27c42.99-42.77,85.98-85.56,128.96-128.33H452.98z
				"/>
		</defs>
		<use xlink:href="#SVGID_9_"  style="overflow:visible;fill:#F26464;"/>
		<clipPath id="SVGID_3_">
			<use xlink:href="#SVGID_9_"  style="overflow:visible;"/>
		</clipPath>
		<rect x="452.98" y="37.8" class="st2" width="254.08" height="259.6"/>
	</g>
	<g>
		<defs>
			<path id="SVGID_7_" d="M452.98,37.8v259.6c41.71-43.76,83.41-87.51,125.12-131.27c42.99-42.77,85.98-85.56,128.96-128.33H452.98z
				"/>
		</defs>
		<clipPath id="SVGID_5_">
			<use xlink:href="#SVGID_7_"  style="overflow:visible;"/>
		</clipPath>
	</g>
</g>
<g>
	<g>
		<defs>
			<rect id="SVGID_17_" x="452.98" y="298.94" width="149.11" height="259.6"/>
		</defs>
		<clipPath id="SVGID_19_">
			<use xlink:href="#SVGID_17_"  style="overflow:visible;"/>
		</clipPath>
	</g>
	<g>
		<defs>
			<rect id="SVGID_15_" x="452.98" y="298.94" width="149.11" height="259.6"/>
		</defs>
		<use xlink:href="#SVGID_15_"  style="overflow:visible;fill:#F9D298;"/>
		<clipPath id="SVGID_20_">
			<use xlink:href="#SVGID_15_"  style="overflow:visible;"/>
		</clipPath>
		<rect x="452.98" y="298.94" class="st3" width="149.11" height="259.6"/>
	</g>
	<g>
		<defs>
			<rect id="SVGID_13_" x="452.98" y="298.94" width="149.11" height="259.6"/>
		</defs>
		<clipPath id="SVGID_21_">
			<use xlink:href="#SVGID_13_"  style="overflow:visible;"/>
		</clipPath>
	</g>
</g>
<g>
	<g>
		<defs>
			<rect id="SVGID_18_" x="700.31" y="300.39" width="254.4" height="257.93"/>
		</defs>
		<clipPath id="SVGID_22_">
			<use xlink:href="#SVGID_18_"  style="overflow:visible;"/>
		</clipPath>
	</g>
	<g>
		<defs>
			<rect id="SVGID_16_" x="700.31" y="300.39" width="254.4" height="257.93"/>
		</defs>
		<use xlink:href="#SVGID_16_"  style="overflow:visible;fill:#F9D298;"/>
		<clipPath id="SVGID_23_">
			<use xlink:href="#SVGID_16_"  style="overflow:visible;"/>
		</clipPath>
		<rect x="700.31" y="300.39" class="st4" width="254.4" height="257.93"/>
	</g>
	<g>
		<defs>
			<rect id="SVGID_14_" x="700.31" y="300.39" width="254.4" height="257.93"/>
		</defs>
		<clipPath id="SVGID_24_">
			<use xlink:href="#SVGID_14_"  style="overflow:visible;"/>
		</clipPath>
	</g>
</g>
<g class="st5">
	<g>
		<defs>
			<rect id="SVGID_10_" x="776.78" y="381.9" width="101.46" height="275.6"/>
		</defs>
		<clipPath id="SVGID_25_">
			<use xlink:href="#SVGID_10_"  style="overflow:visible;"/>
		</clipPath>
		<g class="st6">
			<defs>
				<rect id="SVGID_12_" x="776.78" y="381.9" width="101.46" height="275.6"/>
			</defs>
			<clipPath id="SVGID_26_">
				<use xlink:href="#SVGID_12_"  style="overflow:visible;"/>
			</clipPath>
		</g>
	</g>
	<g>
		<defs>
			<rect id="SVGID_6_" x="776.78" y="381.9" width="101.46" height="275.6"/>
		</defs>
		<use xlink:href="#SVGID_6_"  style="overflow:visible;fill:#F26464;"/>
		<clipPath id="SVGID_27_">
			<use xlink:href="#SVGID_6_"  style="overflow:visible;"/>
		</clipPath>
		<g class="st7">
			<defs>
				<rect id="SVGID_8_" x="776.78" y="381.9" width="101.46" height="275.6"/>
			</defs>
			<use xlink:href="#SVGID_8_"  style="overflow:visible;fill:#F26464;"/>
			<clipPath id="SVGID_28_">
				<use xlink:href="#SVGID_8_"  style="overflow:visible;"/>
			</clipPath>
			<rect x="776.78" y="381.9" class="st8" width="101.46" height="275.6"/>
		</g>
	</g>
	<g>
		<defs>
			<rect id="SVGID_2_" x="776.78" y="381.9" width="101.46" height="275.6"/>
		</defs>
		<clipPath id="SVGID_29_">
			<use xlink:href="#SVGID_2_"  style="overflow:visible;"/>
		</clipPath>
		<g class="st9">
			<defs>
				<rect id="SVGID_4_" x="776.78" y="381.9" width="101.46" height="275.6"/>
			</defs>
			<clipPath id="SVGID_30_">
				<use xlink:href="#SVGID_4_"  style="overflow:visible;"/>
			</clipPath>
		</g>
	</g>
</g>
</svg>
